<svg version="1.0" xmlns="http://www.w3.org/2000/svg"
 width="2793.000000pt" height="2700.000000pt" viewBox="0 0 2793.000000 2700.000000"
 preserveAspectRatio="xMidYMid meet">

<g transform="translate(0.000000,2700.000000) scale(0.100000,-0.100000)">
<path d="M14020 26924 c-899 -13 -1832 -78 -2455 -170 -877 -130 -2046 -509
-3000 -974 -217 -105 -264 -140 -307 -228 -19 -40 -23 -63 -23 -147 0 -92 2
-104 29 -153 61 -109 143 -160 285 -174 125 -12 2194 -105 2636 -118 1540 -46
2911 -136 3860 -256 219 -27 557 -78 648 -97 l59 -12 54 -135 c214 -527 616
-1191 1111 -1833 48 -62 90 -117 95 -124 7 -8 -49 -46 -189 -129 -109 -64
-321 -190 -472 -280 -150 -90 -278 -164 -282 -164 -5 0 -9 9 -9 19 0 78 -263
159 -625 191 -71 7 -135 14 -142 16 -6 1 -23 42 -38 91 -51 171 -158 480 -220
638 -174 445 -301 655 -415 685 -131 35 -323 -58 -532 -258 -54 -52 -100 -93
-101 -91 -2 2 -24 36 -50 75 -74 112 -160 221 -265 334 -465 501 -1062 859
-1775 1064 -467 134 -893 190 -1457 190 -439 0 -690 -22 -1043 -95 -328 -67
-600 -160 -902 -309 -280 -138 -476 -265 -705 -458 -126 -105 -354 -340 -464
-477 -98 -123 -287 -403 -363 -540 -253 -453 -435 -978 -528 -1520 -52 -303
-69 -540 -85 -1175 -24 -949 -72 -1421 -196 -1920 -179 -725 -485 -1310 -970
-1852 l-105 -119 25 -30 c63 -75 175 -150 275 -185 83 -29 208 -46 271 -38
l45 6 452 -321 c249 -176 463 -327 476 -336 22 -14 32 -13 128 9 261 61 469
86 718 86 506 0 827 -139 976 -423 l40 -77 1403 0 c878 0 1402 -4 1402 -9 0
-6 -48 -82 -106 -170 l-105 -161 -1225 0 -1224 0 29 -57 c72 -142 214 -320
345 -434 l79 -69 832 -2 832 -3 -91 -160 -92 -160 -529 -5 -528 -5 159 -146
c186 -172 315 -283 436 -377 48 -37 87 -71 87 -76 1 -13 -81 -125 -209 -286
-455 -569 -976 -1324 -1508 -2180 -90 -146 -230 -371 -310 -500 -478 -770
-947 -1379 -1413 -1835 -249 -243 -426 -385 -664 -531 -889 -544 -1821 -1459
-2609 -2559 -316 -442 -3234 -4609 -3317 -4737 -129 -201 -18 -464 215 -508
79 -15 167 1 229 40 23 14 166 127 317 250 1687 1374 3813 3023 5125 3976
1166 848 1888 1320 2475 1621 354 182 596 340 946 619 341 271 642 543 1088
984 409 405 661 666 1326 1375 1056 1127 1486 1549 1760 1732 l68 45 163 -136
c218 -183 490 -394 934 -726 340 -254 1062 -782 1128 -825 15 -10 24 -21 20
-25 -4 -4 -56 -19 -116 -34 -443 -109 -849 -277 -1672 -691 -562 -283 -670
-334 -995 -467 -588 -241 -1878 -722 -3055 -1137 -544 -193 -527 -186 -584
-237 -75 -67 -105 -137 -106 -244 0 -73 4 -93 28 -142 54 -110 175 -188 293
-188 30 0 319 16 642 35 1658 98 3974 229 5397 305 1220 65 1745 107 2340 186
398 53 905 149 1129 214 l69 19 21 -27 c110 -140 204 -227 431 -397 159 -119
456 -319 560 -376 55 -30 75 -46 70 -57 -14 -36 -55 -266 -66 -367 -26 -248
25 -371 141 -336 56 17 141 78 255 182 471 433 911 625 1538 669 474 34 497
39 724 179 225 138 419 185 895 216 598 40 1082 128 1510 274 379 130 598 287
598 431 0 47 -32 99 -145 240 -191 237 -203 272 -139 415 20 44 52 123 71 175
30 85 34 104 30 175 -2 51 -10 92 -21 114 -43 82 -135 155 -297 235 -97 49
-169 105 -366 291 -226 212 -313 259 -483 258 -131 0 -211 -29 -399 -142 -165
-100 -199 -92 -322 72 -63 85 -78 130 -59 178 20 48 169 179 322 282 162 110
173 118 211 168 20 27 27 47 27 81 0 78 -41 125 -235 270 -315 235 -339 281
-261 491 35 91 34 153 -5 274 -41 126 -38 188 11 265 58 90 82 149 87 209 l6
59 -2554 1 -2554 0 -123 155 c-68 85 -125 161 -129 169 -4 13 315 15 2621 15
l2627 0 -17 33 c-9 17 -55 97 -103 177 -47 80 -109 190 -136 245 l-51 100
-2715 5 -2714 5 -141 160 -141 160 2836 5 2836 5 12 99 c7 55 26 167 43 250
16 82 30 162 30 178 l0 28 -3159 0 -3159 0 -85 89 c-46 49 -108 125 -137 168
l-52 78 3271 3 c1799 1 3271 4 3271 8 0 12 -38 77 -120 205 -95 147 -129 208
-161 294 l-20 55 -2815 0 c-1724 0 -2813 4 -2809 9 13 21 255 196 355 256
l108 65 2532 0 c2407 0 2532 1 2527 18 -3 9 -21 55 -41 102 -57 137 -83 268
-57 284 5 4 124 -83 264 -191 907 -704 1683 -1239 2112 -1458 254 -129 424
-152 628 -84 216 72 430 282 614 606 148 258 320 696 442 1123 217 759 381
1652 473 2580 30 306 33 985 5 1265 -52 515 -136 983 -267 1491 -88 340 -227
780 -279 881 -10 22 -40 58 -66 82 -157 144 -383 111 -506 -74 -242 -365 -558
-1139 -688 -1685 -45 -191 -58 -280 -86 -600 -75 -865 -167 -1391 -319 -1827
-45 -129 -102 -258 -114 -258 -4 0 -89 101 -188 225 -99 124 -231 285 -292
359 -62 73 -112 138 -112 143 0 19 80 157 121 208 49 62 162 151 264 208 67
38 79 49 98 90 28 63 26 135 -7 302 -55 272 -191 788 -315 1187 l-50 162 136
138 c563 572 863 1120 960 1753 12 82 17 175 17 325 0 237 -14 353 -68 569
-183 723 -721 1320 -1443 1602 -138 54 -328 107 -488 136 -100 18 -158 22
-345 23 -196 0 -240 -3 -337 -23 -472 -95 -852 -378 -1115 -829 -33 -57 -62
-103 -65 -103 -15 0 -64 33 -73 49 -28 53 -12 97 180 491 236 485 305 661 317
815 13 168 -49 236 -230 256 -58 7 -112 19 -146 35 -79 36 -194 157 -363 384
-162 218 -258 321 -360 387 -97 63 -165 85 -274 91 -143 7 -213 -16 -524 -167
-301 -147 -492 -231 -730 -321 -357 -134 -575 -229 -673 -292 l-48 -31 -122
119 c-594 581 -1166 1132 -1472 1416 -395 367 -460 418 -621 483 -331 134
-954 222 -1799 254 -284 11 -860 19 -1135 15z m760 -334 c1156 -27 1897 -128
2155 -295 147 -96 1200 -1101 2555 -2440 284 -282 500 -485 622 -588 235 -199
437 -385 554 -513 392 -428 606 -801 673 -1174 11 -60 25 -119 31 -129 14 -27
95 -97 144 -124 166 -93 297 -79 411 45 127 137 221 414 270 796 58 449 319
920 644 1161 217 161 473 241 766 241 518 -1 1059 -231 1441 -614 584 -586
739 -1417 413 -2210 -158 -385 -475 -813 -871 -1174 -620 -566 -1119 -721
-1493 -462 -22 16 -134 109 -250 208 -115 99 -211 179 -213 178 -1 -2 33 -132
78 -290 132 -474 138 -485 474 -826 705 -716 1467 -1586 1920 -2190 131 -174
161 -200 236 -200 89 0 127 35 226 212 261 465 420 1169 514 2283 33 389 52
495 140 802 87 301 199 599 339 903 79 171 240 470 253 470 19 0 201 -599 284
-940 257 -1050 303 -1859 168 -2935 -216 -1726 -659 -3130 -1102 -3498 -100
-83 -213 -125 -301 -112 -226 34 -897 461 -1866 1189 -985 739 -2022 1617
-2387 2020 -111 122 -143 145 -205 146 -62 0 -83 -11 -180 -100 -324 -300
-822 -670 -1203 -895 -151 -89 -390 -210 -740 -374 -787 -370 -1381 -692
-1657 -900 -71 -53 -211 -164 -313 -247 -224 -182 -372 -295 -504 -381 -83
-56 -101 -72 -118 -111 -26 -57 -21 -99 24 -219 69 -184 177 -335 372 -523
264 -255 401 -396 566 -580 773 -863 1633 -1977 2148 -2782 463 -723 703
-1252 704 -1553 1 -149 -26 -201 -159 -314 -609 -510 -1607 -759 -3598 -896
-121 -8 -557 -33 -970 -55 -1442 -77 -3443 -190 -5143 -290 -464 -28 -851 -50
-860 -49 -9 0 28 16 83 36 1520 537 2842 1027 3481 1291 307 127 421 181 959
452 292 147 593 295 670 329 535 240 989 381 1383 432 103 13 141 32 180 89
20 29 23 45 20 90 -2 30 -12 67 -22 82 -9 14 -119 100 -244 189 -1078 773
-1971 1447 -2314 1747 -160 140 -193 152 -319 112 -155 -48 -343 -191 -723
-548 -255 -240 -588 -584 -1276 -1317 -1145 -1221 -1681 -1753 -2228 -2208
-404 -336 -682 -525 -1066 -721 -355 -183 -657 -365 -1171 -707 -1077 -717
-2595 -1846 -4555 -3388 -578 -455 -1954 -1556 -2174 -1740 -14 -11 -17 -12
-11 -2 17 28 2252 3224 2904 4151 538 766 663 935 915 1234 650 774 1320 1380
1971 1783 289 179 495 343 758 602 465 457 971 1112 1419 1836 905 1461 1213
1916 1826 2700 249 318 344 466 727 1134 276 484 367 635 531 883 547 830
1123 1362 1819 1680 293 134 468 230 680 371 639 426 1273 1077 1952 2002 172
236 347 486 699 1006 179 265 408 597 508 738 396 557 691 1005 767 1166 52
108 42 137 -111 305 -261 290 -630 748 -855 1061 -382 533 -693 1074 -854
1484 -92 235 -92 235 -131 261 -37 24 -159 50 -466 98 -895 140 -2419 256
-4009 306 -527 16 -546 17 -1757 72 -643 29 -1168 55 -1168 59 0 8 278 141
486 232 909 398 1843 682 2604 791 668 96 1481 146 2625 164 50 1 272 -3 495
-8z m-3328 -5954 c67 -15 212 -68 235 -88 9 -7 13 -47 13 -144 0 -74 -2 -134
-5 -134 -3 0 -42 19 -88 41 -128 65 -210 90 -313 96 -155 9 -256 -39 -271
-130 -8 -53 3 -83 50 -134 35 -38 77 -63 242 -144 281 -137 371 -210 427 -349
18 -45 22 -75 23 -171 0 -113 -1 -116 -37 -190 -42 -83 -96 -142 -181 -192
-88 -53 -178 -72 -332 -70 -159 1 -249 23 -385 91 l-95 47 -3 158 -3 158 68
-51 c145 -109 300 -165 438 -158 161 9 251 101 216 220 -23 75 -65 107 -284
217 -236 119 -323 179 -384 269 -59 87 -77 153 -71 267 6 116 35 184 111 259
79 80 182 127 317 147 71 10 227 3 312 -15z m-1124 -123 l3 -123 -286 0 -285
0 0 -675 0 -675 -155 0 -155 0 0 675 0 675 -280 0 -280 0 0 125 0 125 718 -2
717 -3 3 -122z m2315 -380 c122 -277 224 -499 228 -495 4 4 103 231 220 504
l214 498 164 0 c131 0 162 -3 158 -13 -3 -7 -161 -372 -353 -811 l-347 -797
-56 3 -56 3 -361 802 c-199 442 -359 805 -356 808 3 3 77 4 165 3 l159 -3 221
-502z m10053 -5169 c98 -80 190 -157 204 -170 l25 -24 -1845 1 -1845 1 160 76
c88 42 243 118 345 169 l185 92 1296 0 1296 1 179 -146z"/>
</g>
</svg>
